<svg fill="none" height="24" viewBox="0 0 24 24" width="24" xmlns="http://www.w3.org/2000/svg">
  <path d="m10.902 3.04272c.4494-.91048 1.7476-.91048 2.197 0l2.4261 4.91598 5.4252 0.7883c1.0048.146 1.406.6904 0.6789 2.0895l-3.9256 3.8266 0.9267 5.4032c.1716 1.0007-.8787 1.7638-1.7774 1.2913l-4.8523-2.551-4.8524 2.551c-.8987.4725-1.9491-.2907-1.7774-1.2913l0.9267-5.4032-3.92563-3.8266c-.72706-0.6994-.32586-1.9435 0.67891-2.0895l5.42522-0.7883zm1.0985 0.59863-2.4096 4.88235c-.1784.3616-.5233.6122-.9224.6702l-5.388 0.7829 3.8988 3.80035c.2887.2814.4205.687.3523 1.0843l-0.9204 5.3662 4.8192-2.5336c.3569-.1876.7832-.1876 1.1401 0l4.8192 2.5336-0.9204-5.3662c-.0681-.3973.0636-.8029.3523-1.0843l3.8988-3.80035-5.388-0.7829c-.399-.058-.7439-.3086-.9224-.6702z" fill="#212121"/>
</svg>
